<svg xmlns="http://www.w3.org/2000/svg" width="1200" height="630" viewBox="0 0 1200 630">
  <defs>
    <linearGradient id="bg" x1="0" y1="0" x2="1" y2="1">
      <stop offset="0%" stop-color="#3D2317"/>
      <stop offset="100%" stop-color="#5C3D2E"/>
    </linearGradient>
  </defs>

  <!-- Background -->
  <rect width="1200" height="630" fill="url(#bg)"/>

  <!-- Bingo grid icon (left side) -->
  <g transform="translate(140, 180)">
    <rect x="0"   y="0"   width="70" height="70" rx="12" fill="#D4A574" opacity="0.6"/>
    <rect x="85"  y="0"   width="70" height="70" rx="12" fill="#F59E0B"/>
    <rect x="170" y="0"   width="70" height="70" rx="12" fill="#D4A574" opacity="0.6"/>
    <rect x="0"   y="85"  width="70" height="70" rx="12" fill="#F59E0B"/>
    <rect x="85"  y="85"  width="70" height="70" rx="12" fill="#D4A574" opacity="0.6"/>
    <rect x="170" y="85"  width="70" height="70" rx="12" fill="#F59E0B"/>
    <rect x="0"   y="170" width="70" height="70" rx="12" fill="#D4A574" opacity="0.6"/>
    <rect x="85"  y="170" width="70" height="70" rx="12" fill="#F59E0B"/>
    <rect x="170" y="170" width="70" height="70" rx="12" fill="#D4A574" opacity="0.6"/>
  </g>

  <!-- Title text -->
  <text x="520" y="280" font-family="system-ui, -apple-system, sans-serif" font-weight="900" font-size="96" fill="#FFF8E7">
    Bull<tspan fill="#F59E0B">$</tspan>hit<tspan fill="#F59E0B">!</tspan>
  </text>
  <text x="520" y="390" font-family="system-ui, -apple-system, sans-serif" font-weight="900" font-size="96" fill="#FFF8E7">
    Bingo
  </text>

  <!-- Tagline -->
  <text x="520" y="450" font-family="system-ui, -apple-system, sans-serif" font-weight="400" font-size="28" fill="#D4A574">
    For the stuff they always say.
  </text>
</svg>
